<svg width="117" height="30" viewBox="0 0 117 30" fill="none" xmlns="http://www.w3.org/2000/svg">
<path d="M14.8499 3.19423L6.58308 8.91098H2.29551C1.01805 8.91098 0 9.98288 0 11.3093V18.607C0 19.9334 1.02295 21.0053 2.29551 21.0053H6.63202L14.8499 26.771C15.77 27.373 16.465 26.5409 16.4308 26.0074V4.01161C16.4846 3.63963 15.8434 2.61178 14.8499 3.19423ZM1.99205 18.6559V11.3582C1.99205 11.1037 2.14378 10.952 2.30041 10.952H5.92232V19.067H2.30041C2.14378 19.067 1.99205 18.8615 1.99205 18.6559ZM14.4436 24.1181L7.96332 19.5907V10.4283L14.4436 5.90088V24.1181Z" fill="#206FF3"/>
<path d="M23.8099 23.5V5.692H25.5139V23.5H23.8099ZM30.2552 23.5V10.9H31.9592V23.5H30.2552ZM31.1192 8.116C30.7672 8.116 30.4712 7.996 30.2312 7.756C29.9912 7.516 29.8712 7.228 29.8712 6.892C29.8712 6.556 29.9912 6.276 30.2312 6.052C30.4712 5.812 30.7672 5.692 31.1192 5.692C31.4712 5.692 31.7672 5.804 32.0072 6.028C32.2472 6.252 32.3672 6.532 32.3672 6.868C32.3672 7.22 32.2472 7.516 32.0072 7.756C31.7832 7.996 31.4872 8.116 31.1192 8.116ZM38.0446 20.236L38.0926 18.052L45.9406 10.9H48.0286L42.4846 16.204L41.5246 17.02L38.0446 20.236ZM36.7006 23.5V5.692H38.4046V23.5H36.7006ZM46.4686 23.5L41.2126 16.948L42.3166 15.628L48.5566 23.5H46.4686ZM57.6186 23.62C56.5146 23.62 55.5226 23.372 54.6426 22.876C53.7626 22.364 53.0666 21.628 52.5546 20.668C52.0426 19.708 51.7866 18.548 51.7866 17.188C51.7866 15.812 52.0426 14.652 52.5546 13.708C53.0826 12.748 53.7866 12.02 54.6666 11.524C55.5466 11.028 56.5306 10.78 57.6186 10.78C58.8186 10.78 59.8906 11.052 60.8346 11.596C61.7946 12.124 62.5466 12.868 63.0906 13.828C63.6346 14.788 63.9066 15.908 63.9066 17.188C63.9066 18.452 63.6346 19.572 63.0906 20.548C62.5466 21.508 61.7946 22.26 60.8346 22.804C59.8906 23.348 58.8186 23.62 57.6186 23.62ZM51.1146 23.5V5.692H52.8186V14.62L52.5786 17.164L52.7466 19.708V23.5H51.1146ZM57.4986 22.108C58.3946 22.108 59.1946 21.908 59.8986 21.508C60.6026 21.092 61.1626 20.516 61.5786 19.78C61.9946 19.028 62.2026 18.164 62.2026 17.188C62.2026 16.196 61.9946 15.332 61.5786 14.596C61.1626 13.86 60.6026 13.292 59.8986 12.892C59.1946 12.476 58.3946 12.268 57.4986 12.268C56.6026 12.268 55.7946 12.476 55.0746 12.892C54.3706 13.292 53.8106 13.86 53.3946 14.596C52.9946 15.332 52.7946 16.196 52.7946 17.188C52.7946 18.164 52.9946 19.028 53.3946 19.78C53.8106 20.516 54.3706 21.092 55.0746 21.508C55.7946 21.908 56.6026 22.108 57.4986 22.108ZM72.7322 23.62C71.4202 23.62 70.2682 23.348 69.2762 22.804C68.2842 22.244 67.5082 21.484 66.9482 20.524C66.3882 19.548 66.1082 18.436 66.1082 17.188C66.1082 15.94 66.3722 14.836 66.9002 13.876C67.4442 12.916 68.1802 12.164 69.1082 11.62C70.0522 11.06 71.1082 10.78 72.2762 10.78C73.4602 10.78 74.5082 11.052 75.4202 11.596C76.3482 12.124 77.0762 12.876 77.6042 13.852C78.1322 14.812 78.3962 15.924 78.3962 17.188C78.3962 17.268 78.3882 17.356 78.3722 17.452C78.3722 17.532 78.3722 17.62 78.3722 17.716H67.4042V16.444H77.4602L76.7882 16.948C76.7882 16.036 76.5882 15.228 76.1882 14.524C75.8042 13.804 75.2762 13.244 74.6042 12.844C73.9322 12.444 73.1562 12.244 72.2762 12.244C71.4122 12.244 70.6362 12.444 69.9482 12.844C69.2602 13.244 68.7242 13.804 68.3402 14.524C67.9562 15.244 67.7642 16.068 67.7642 16.996V17.26C67.7642 18.22 67.9722 19.068 68.3882 19.804C68.8202 20.524 69.4122 21.092 70.1642 21.508C70.9322 21.908 71.8042 22.108 72.7802 22.108C73.5482 22.108 74.2602 21.972 74.9162 21.7C75.5882 21.428 76.1642 21.012 76.6442 20.452L77.6042 21.556C77.0442 22.228 76.3402 22.74 75.4922 23.092C74.6602 23.444 73.7402 23.62 72.7322 23.62ZM80.3794 23.5V22.372L88.7794 11.74L89.1394 12.316H80.5234V10.9H90.4834V12.004L82.1074 22.66L81.6754 22.084H90.6514V23.5H80.3794ZM92.6372 23.5V22.372L101.037 11.74L101.397 12.316H92.7812V10.9H102.741V12.004L94.3652 22.66L93.9332 22.084H102.909V23.5H92.6372Z" fill="#206FF3"/>
<path d="M110.143 11.1472C109.58 11.3527 109.325 11.9107 109.477 12.4246C109.526 12.4246 110.192 14.6712 109.477 17.6274C109.325 18.1903 109.629 18.6993 110.192 18.8511C110.789 19.0468 111.313 18.5966 111.415 18.0875C112.282 14.6173 111.464 11.9156 111.415 11.8128C111.215 11.2499 110.652 10.9905 110.143 11.1472Z" fill="#206FF3"/>
<path d="M115.798 7.9286C115.592 7.36574 115.034 7.11122 114.52 7.26295C113.957 7.46852 113.703 8.02649 113.855 8.54041C113.904 8.58936 115.641 14.1544 113.855 21.501C113.703 22.0639 114.006 22.5729 114.569 22.7246C115.127 22.9449 115.69 22.4701 115.793 22.01C117.736 14.1005 115.9 8.18312 115.798 7.9286Z" fill="#206FF3"/>
</svg>
