<svg width="16" height="16" viewBox="0 0 16 16" fill="none" xmlns="http://www.w3.org/2000/svg">
<path d="M0.533331 8L0.0383979 7.8016C-0.0126366 7.92894 -0.0126366 8.07105 0.0383979 8.1984L0.533331 8ZM15.4667 8L15.9616 8.1984C16.0126 8.07105 16.0126 7.92894 15.9616 7.8016L15.4667 8ZM8 12.8C5.53173 12.8 3.7984 11.5712 2.66346 10.3104C2.04331 9.61669 1.52308 8.83976 1.11786 8.00213C1.08818 7.93869 1.05973 7.87468 1.03253 7.81013L1.02826 7.80266V7.8016L0.533331 8L0.0383979 8.1984V8.20053L0.041598 8.2048C0.0504795 8.22735 0.0597251 8.24975 0.0693313 8.272L0.152531 8.45653C0.602138 9.3881 1.18022 10.252 1.86986 11.0229C3.136 12.4288 5.13493 13.8667 8 13.8667V12.8ZM0.533331 8L1.02826 8.1984L1.03253 8.18987C1.05856 8.12482 1.08702 8.06077 1.11786 7.99787C1.52308 7.16023 2.04331 6.38331 2.66346 5.6896C3.79733 4.4288 5.53173 3.2 8 3.2V2.13333C5.13493 2.13333 3.13493 3.5712 1.86986 4.97706C1.18021 5.748 0.602126 6.61189 0.152531 7.54347C0.113769 7.62658 0.0767828 7.71051 0.041598 7.7952L0.0394646 7.79946V7.80053H0.0373313L0.533331 8ZM8 3.2C10.4683 3.2 12.2016 4.4288 13.3365 5.6896C13.9567 6.38332 14.4769 7.16025 14.8821 7.99787C14.9119 8.06126 14.9404 8.12528 14.9675 8.18987L14.9717 8.19733V8.1984L15.4667 8L15.9616 7.8016V7.79946L15.9584 7.7952C15.9503 7.77233 15.9411 7.7499 15.9307 7.728C15.8052 7.4467 15.6663 7.17155 15.5147 6.90346C15.1236 6.21353 14.6594 5.56768 14.1301 4.97706C12.864 3.5712 10.8651 2.13333 8 2.13333V3.2ZM15.4667 8C15.3014 7.93446 15.1365 7.86833 14.9717 7.8016L14.9685 7.81013L14.9525 7.84746L14.8821 8.00213C14.4769 8.83975 13.9567 9.61667 13.3365 10.3104C12.2027 11.5712 10.4683 12.8 8 12.8V13.8667C10.8651 13.8667 12.8651 12.4288 14.1301 11.024C14.8199 10.2527 15.398 9.38849 15.8475 8.45653C15.8862 8.3734 15.9232 8.28947 15.9584 8.2048L15.9605 8.20053V8.19946H15.9616L15.4667 8ZM8 9.6C7.57565 9.6 7.16869 9.43143 6.86863 9.13137C6.56857 8.83131 6.4 8.42434 6.4 8H5.33333C5.33333 8.70724 5.61428 9.38552 6.11438 9.88562C6.61448 10.3857 7.29275 10.6667 8 10.6667V9.6ZM9.6 8C9.6 8.42434 9.43143 8.83131 9.13137 9.13137C8.83131 9.43143 8.42435 9.6 8 9.6V10.6667C8.70724 10.6667 9.38552 10.3857 9.88562 9.88562C10.3857 9.38552 10.6667 8.70724 10.6667 8H9.6ZM8 6.4C8.42435 6.4 8.83131 6.56857 9.13137 6.86863C9.43143 7.16869 9.6 7.57565 9.6 8H10.6667C10.6667 7.29275 10.3857 6.61448 9.88562 6.11438C9.38552 5.61428 8.70724 5.33333 8 5.33333V6.4ZM8 5.33333C7.29275 5.33333 6.61448 5.61428 6.11438 6.11438C5.61428 6.61448 5.33333 7.29275 5.33333 8H6.4C6.4 7.57565 6.56857 7.16869 6.86863 6.86863C7.16869 6.56857 7.57565 6.4 8 6.4V5.33333Z" fill="#727C85"/>
</svg>
