<svg width="15" height="16" viewBox="0 0 15 16" fill="none" xmlns="http://www.w3.org/2000/svg">
<g>
<path d="M12.5 9V8C12.5 7.73478 12.3946 7.48043 12.2071 7.29289C12.0196 7.10536 11.7652 7 11.5 7H1.5C1.23478 7 0.98043 7.10536 0.792893 7.29289C0.605357 7.48043 0.5 7.73478 0.5 8V14C0.5 14.2652 0.605357 14.5196 0.792893 14.7071C0.98043 14.8946 1.23478 15 1.5 15H11.5C11.7652 15 12.0196 14.8946 12.2071 14.7071C12.3946 14.5196 12.5 14.2652 12.5 14V13M12.5 9H8.5C7.96957 9 7.46086 9.21071 7.08579 9.58579C6.71071 9.96086 6.5 10.4696 6.5 11C6.5 11.5304 6.71071 12.0391 7.08579 12.4142C7.46086 12.7893 7.96957 13 8.5 13H12.5M12.5 9C13.0304 9 13.5391 9.21071 13.9142 9.58579C14.2893 9.96086 14.5 10.4696 14.5 11C14.5 11.5304 14.2893 12.0391 13.9142 12.4142C13.5391 12.7893 13.0304 13 12.5 13M3.5 7V4C3.5 3.20435 3.81607 2.44129 4.37868 1.87868C4.94129 1.31607 5.70435 1 6.5 1C7.29565 1 8.05871 1.31607 8.62132 1.87868C9.18393 2.44129 9.5 3.20435 9.5 4V7M12 11H13M10 11H11M8 11H9" stroke="#727C85"/>
</g>
</svg>
