<svg width="16" height="16" viewBox="0 0 16 16" fill="none" xmlns="http://www.w3.org/2000/svg">
<g clip-path="url(#clip0_2_20)">
<path d="M3.73333 5.86667L3.2832 5.58081L3.2 5.71094V5.86667H3.73333ZM6.6112 1.34401L7.06027 1.63201L6.6112 1.34401ZM9.456 2.95467L8.97813 2.71681L9.456 2.95574V2.95467ZM8 5.86667L7.5232 5.62774C7.48246 5.70905 7.46318 5.79943 7.46721 5.89029C7.47124 5.98115 7.49843 6.06947 7.54621 6.14686C7.59399 6.22424 7.66076 6.28813 7.74019 6.33243C7.81961 6.37674 7.90905 6.4 8 6.40001V5.86667ZM15.4667 11.2L15.8933 11.52L16 11.3781V11.2H15.4667ZM12.9067 14.6133L13.3333 14.9333L12.9067 14.6133ZM8.83413 0.820273L9.10827 0.362673L8.83413 0.821339V0.820273ZM0 5.33334V16H1.06667V5.33334H0ZM4.18347 6.15254L7.06027 1.63201L6.16107 1.05814L3.2832 5.58081L4.18347 6.15254ZM8.97813 2.71787L7.5232 5.62667L8.4768 6.10454L9.9328 3.19254L8.97813 2.71574V2.71787ZM8 6.40001H13.3333V5.33334H8V6.40001ZM14.9333 8.00001V11.2H16V8.00001H14.9333ZM15.04 10.88L12.48 14.2933L13.3333 14.9333L15.8933 11.52L15.04 10.88ZM11.2 14.9333H5.86667V16H11.2V14.9333ZM4.26667 13.3333V5.86667H3.2V13.3333H4.26667ZM13.3333 6.40001C13.7577 6.40001 14.1646 6.56858 14.4647 6.86863C14.7648 7.16869 14.9333 7.57566 14.9333 8.00001H16C16 7.29276 15.719 6.61448 15.219 6.11439C14.7189 5.61429 14.0406 5.33334 13.3333 5.33334V6.40001ZM5.86667 14.9333C5.44232 14.9333 5.03535 14.7648 4.7353 14.4647C4.43524 14.1647 4.26667 13.7577 4.26667 13.3333H3.2C3.2 14.0406 3.48095 14.7189 3.98105 15.219C4.48115 15.7191 5.15942 16 5.86667 16V14.9333ZM8.55893 1.27787C9.05387 1.57441 9.23627 2.20161 8.97813 2.71787L9.9328 3.19361C10.1773 2.70465 10.2282 2.14142 10.0753 1.61655C9.92246 1.09168 9.57708 0.643868 9.10827 0.362673L8.55893 1.27787ZM12.48 14.2933C12.331 14.4921 12.1377 14.6533 11.9155 14.7644C11.6934 14.8755 11.4484 14.9333 11.2 14.9333V16C11.614 16 12.0223 15.9036 12.3926 15.7185C12.7629 15.5333 13.0849 15.2645 13.3333 14.9333L12.48 14.2933ZM7.06133 1.63201C7.38133 1.12641 8.04693 0.970673 8.55893 1.27787L9.10933 0.362673C8.62436 0.0715287 8.04487 -0.0187023 7.49434 0.111209C6.94381 0.24112 6.46578 0.580901 6.16213 1.05814L7.06133 1.63094V1.63201Z" fill="#727C85"/>
</g>
<defs>
<clipPath id="clip0_2_20">
<rect width="16" height="16" fill="white"/>
</clipPath>
</defs>
</svg>
