<svg width="15" height="16" viewBox="0 0 15 16" fill="none" xmlns="http://www.w3.org/2000/svg">
<g clip-path="url(#clip0_2_16)">
<path d="M3.5 10H3V10.146L3.078 10.268L3.5 10ZM6.198 14.24L6.619 13.97L6.198 14.24ZM8.865 12.73L8.417 12.953L8.865 12.729V12.73ZM7.5 10V9.5C7.41474 9.5 7.33089 9.52181 7.25643 9.56335C7.18197 9.60489 7.11936 9.66478 7.07457 9.73733C7.02978 9.80988 7.00428 9.89268 7.00051 9.97786C6.99673 10.063 7.0148 10.1478 7.053 10.224L7.5 10ZM14.5 5H15V4.833L14.9 4.7L14.5 5ZM12.1 1.8L12.5 1.5L12.1 1.8ZM8.282 14.731L8.539 15.16L8.282 14.731ZM1 10.5V0.5H0V10.5H1ZM3.078 10.268L5.776 14.508L6.619 13.971L3.922 9.731L3.078 10.268ZM9.312 12.505L7.947 9.776L7.053 10.224L8.417 12.953L9.312 12.506V12.505ZM7.5 10.5H12.5V9.5H7.5V10.5ZM15 8V5H14V8H15ZM14.9 4.7L12.5 1.5L11.7 2.1L14.1 5.3L14.9 4.7ZM10.5 0.5H5.5V1.5H10.5V0.5ZM3 3V10H4V3H3ZM12.5 10.5C13.163 10.5 13.7989 10.2366 14.2678 9.76777C14.7366 9.29893 15 8.66304 15 8H14C14 8.39782 13.842 8.77936 13.5607 9.06066C13.2794 9.34196 12.8978 9.5 12.5 9.5V10.5ZM5.5 0.5C4.83696 0.5 4.20107 0.763392 3.73223 1.23223C3.26339 1.70107 3 2.33696 3 3H4C4 2.60218 4.15804 2.22064 4.43934 1.93934C4.72064 1.65804 5.10218 1.5 5.5 1.5V0.5ZM8.539 15.16C8.97877 14.8964 9.30274 14.4764 9.44607 13.9841C9.5894 13.4918 9.54152 12.9635 9.312 12.505L8.417 12.953C8.659 13.436 8.487 14.024 8.024 14.303L8.539 15.16ZM12.5 1.5C12.2671 1.18951 11.9652 0.937501 11.618 0.763932C11.2709 0.590363 10.8881 0.5 10.5 0.5V1.5C10.7329 1.5 10.9625 1.55422 11.1708 1.65836C11.3791 1.7625 11.5603 1.91371 11.7 2.1L12.5 1.5ZM5.776 14.508C6.06067 14.9554 6.50882 15.274 7.02494 15.3957C7.54106 15.5175 8.08434 15.4329 8.539 15.16L8.024 14.302C7.79289 14.4409 7.51665 14.4841 7.25419 14.4222C6.99172 14.3604 6.76379 14.1985 6.619 13.971L5.776 14.508Z" fill="#727C85"/>
</g>
<defs>
<clipPath id="clip0_2_16">
<rect width="15" height="15" fill="white" transform="translate(0 0.5)"/>
</clipPath>
</defs>
</svg>
