<svg width="15" height="16" viewBox="0 0 15 16" fill="none" xmlns="http://www.w3.org/2000/svg">
<g clip-path="url(#clip0_3_598)">
<path d="M10.5 3.99799C10.4999 4.39182 10.4222 4.78177 10.2713 5.14558C10.1205 5.50938 9.89948 5.83992 9.62091 6.11831C9.34233 6.3967 9.01165 6.61749 8.64774 6.76808C8.28384 6.91868 7.89383 6.99612 7.5 6.99599C6.90685 6.99579 6.32709 6.81971 5.83401 6.49001C5.34094 6.16031 4.95671 5.6918 4.7299 5.14373C4.5031 4.59566 4.44391 3.99264 4.55982 3.41093C4.67573 2.82922 4.96154 2.29494 5.38109 1.87567C5.80065 1.45639 6.33512 1.17094 6.9169 1.05542C7.49869 0.939894 8.10167 0.999485 8.64959 1.22666C9.19751 1.45383 9.66576 1.83837 9.99513 2.33166C10.3245 2.82496 10.5002 3.40484 10.5 3.99799V3.99799ZM12.5 14.99H2.5V12.994C2.5 12.1983 2.81607 11.4353 3.37868 10.8727C3.94129 10.3101 4.70435 9.99399 5.5 9.99399H9.5C10.2956 9.99399 11.0587 10.3101 11.6213 10.8727C12.1839 11.4353 12.5 12.1983 12.5 12.994V14.991V14.99Z" stroke="#727C85" stroke-linecap="square"/>
</g>
<defs>
<clipPath id="clip0_3_598">
<rect width="15" height="15" fill="white" transform="translate(0 0.5)"/>
</clipPath>
</defs>
</svg>
